<svg viewBox="0 0 24 24" xmlns="http://www.w3.org/2000/svg" focusable="false"><defs><linearGradient id="dsId_SXn67i4aOA0_linear_11222_4934" x1="10.5" y1="4" x2="10.5" y2="21" gradientUnits="userSpaceOnUse"><stop stop-color="currentColor"></stop><stop offset="1" stop-opacity=".7" stop-color="currentColor"></stop></linearGradient></defs><path d="M2.306 11.319c5.1-2.4 8.501-3.981 10.203-4.745C17.368 4.392 18.377 4.013 19.035 4c.145-.002.469.036.678.22.177.155.226.364.25.511.023.147.052.482.029.744-.264 2.987-1.403 10.235-1.983 13.58-.245 1.416-.728 1.89-1.195 1.937-1.016.1-1.788-.725-2.772-1.422-1.54-1.09-2.41-1.768-3.904-2.831-1.727-1.23-.608-1.905.377-3.009.257-.289 4.734-4.684 4.82-5.083.011-.05.021-.236-.081-.334-.102-.098-.253-.065-.362-.038-.155.038-2.614 1.793-7.38 5.266-.698.518-1.33.77-1.897.757-.625-.015-1.826-.382-2.72-.695-1.095-.385-1.966-.588-1.89-1.241.04-.34.473-.688 1.301-1.043Z" fill="url(#dsId_SXn67i4aOA0_linear_11222_4934)"></path></svg>